Crickets Greatest Wonders And Blunders 2010 DVDRip XViD [ Team MJY ]

[img]http://img13.imageshack.us/img13/8077/cricketsgreatestwonder.jpg[/img]

Here Is The Collection Of Crickets Greatest Wonders And Blunders.All Things Contained In This Are Very Rare Videos And Stunning Moments.This Is Specially For Cricket Lovers.

Details

 Format : AVI
 Format/Info : Audio Video Interleave
 File size : 699 MiB
 Duration : 1h 29mn
 Overall bit rate : 1 097 Kbps
 Writing application : Nandub v1.0rc2
 Writing library : Nandub build 1853/release

 Video

 ID : 0
 Format : MPEG-4 Visual
 Format profile : Advanced SimpleL5
 Format settings, BVOP : No
 Format settings, QPel : No
 Format settings, GMC : No warppoints
 Format settings, Matrix : Default (H.263)
 Codec ID : XVID
 Codec ID/Hint : XviD
 Duration : 1h 29mn
 Bit rate : 939 Kbps
 Width : 576 pixels
 Height : 320 pixels
 Display aspect ratio : 16:9
 Frame rate : 25.000 fps
 Color space : YUV
 Chroma subsampling : 4:2:0
 Bit depth : 8 bits
 Scan type : Progressive
 Compression mode : Lossy
 Bits/(PixelFrame) : 0.204
 Stream size : 599 MiB (86)
 Writing library : XviD 61

 Audio

 ID : 1
 Format : MPEG Audio
 Format version : Version 1
 Format profile : Layer 3
 Codec ID : 55
 Codec ID/Hint : MP3
 Duration : 1h 29mn
 Bit rate mode : Variable
 Bit rate : 145 Kbps
 Channel(s) : 2 channels
 Sampling rate : 48.0 KHz
 Compression mode : Lossy
 Stream size : 92.4 MiB (13)
 Alignment : Aligned on interleaves
 Interleave, duration : 24 ms (0.60 video frame)
 Interleave, preload duration : 121 ms
 Writing library : LAME3.89 (alpha)

[img]http://img5.imageshack.us/img5/8753/vlcsnap2011081100h12m00.png[/img]
[img]http://img828.imageshack.us/img828/1469/vlcsnap2011081100h12m23.png[/img]
[img]http://img402.imageshack.us/img402/9696/vlcsnap2011081100h13m50.png[/img]
[img]http://img9.imageshack.us/img9/2497/vlcsnap2011081100h14m06.png[/img]
[img]http://img15.imageshack.us/img15/2545/45880647.jpg[/img]